<svg width="16" height="16" viewBox="0 0 16 16" fill="none" xmlns="http://www.w3.org/2000/svg">
<g clip-path="url(#clip0_1_6)">
<path d="M16 8.049C16 3.603 12.418 -0.000999451 8 -0.000999451C3.58 5.49364e-07 -0.0019989 3.603 -0.0019989 8.05C-0.0019989 12.067 2.924 15.397 6.748 16.001V10.376H4.718V8.05H6.75V6.275C6.75 4.258 7.945 3.144 9.772 3.144C10.648 3.144 11.563 3.301 11.563 3.301V5.281H10.554C9.561 5.281 9.251 5.902 9.251 6.539V8.049H11.469L11.115 10.375H9.25V16C13.074 15.396 16 12.066 16 8.049Z" fill="#006C3F"/>
</g>
<defs>
<clipPath id="clip0_1_6">
<rect width="16" height="16" fill="white"/>
</clipPath>
</defs>
</svg>
