<svg width="16" height="16" viewBox="0 0 16 16" fill="none" xmlns="http://www.w3.org/2000/svg">
<g clip-path="url(#clip0_10_22)">
<path d="M8 4.754C7.57373 4.754 7.15163 4.83796 6.75781 5.00108C6.36398 5.16421 6.00615 5.40331 5.70473 5.70473C5.40331 6.00615 5.16421 6.36398 5.00109 6.75781C4.83796 7.15163 4.754 7.57373 4.754 8C4.754 8.42627 4.83796 8.84837 5.00109 9.24219C5.16421 9.63601 5.40331 9.99385 5.70473 10.2953C6.00615 10.5967 6.36398 10.8358 6.75781 10.9989C7.15163 11.162 7.57373 11.246 8 11.246C8.86089 11.246 9.68652 10.904 10.2953 10.2953C10.904 9.68652 11.246 8.86089 11.246 8C11.246 7.1391 10.904 6.31347 10.2953 5.70473C9.68652 5.09599 8.86089 4.754 8 4.754ZM5.754 8C5.754 7.40432 5.99063 6.83304 6.41184 6.41184C6.83304 5.99063 7.40432 5.754 8 5.754C8.59567 5.754 9.16695 5.99063 9.58816 6.41184C10.0094 6.83304 10.246 7.40432 10.246 8C10.246 8.59567 10.0094 9.16695 9.58816 9.58816C9.16695 10.0094 8.59567 10.246 8 10.246C7.40432 10.246 6.83304 10.0094 6.41184 9.58816C5.99063 9.16695 5.754 8.59567 5.754 8Z" fill="#006C3F"/>
<path d="M9.796 1.343C9.269 -0.446996 6.731 -0.446996 6.204 1.343L6.11 1.662C6.0732 1.78696 6.0089 1.90209 5.92182 1.99896C5.83474 2.09584 5.72708 2.17199 5.60674 2.22186C5.48641 2.27172 5.35643 2.29402 5.22636 2.28712C5.09628 2.28023 4.9694 2.24431 4.855 2.182L4.563 2.022C2.923 1.13 1.13 2.924 2.023 4.563L2.182 4.855C2.24431 4.9694 2.28023 5.09628 2.28712 5.22636C2.29402 5.35643 2.27172 5.48641 2.22186 5.60674C2.17199 5.72708 2.09584 5.83474 1.99896 5.92182C1.90209 6.0089 1.78696 6.0732 1.662 6.11L1.343 6.204C-0.446996 6.731 -0.446996 9.269 1.343 9.796L1.662 9.89C1.78696 9.92681 1.90209 9.99111 1.99896 10.0782C2.09584 10.1653 2.17199 10.2729 2.22186 10.3933C2.27172 10.5136 2.29402 10.6436 2.28712 10.7736C2.28023 10.9037 2.24431 11.0306 2.182 11.145L2.022 11.437C1.13 13.077 2.923 14.871 4.563 13.977L4.855 13.818C4.9694 13.7557 5.09628 13.7198 5.22636 13.7129C5.35643 13.706 5.48641 13.7283 5.60674 13.7782C5.72708 13.828 5.83474 13.9042 5.92182 14.001C6.0089 14.0979 6.0732 14.2131 6.11 14.338L6.204 14.657C6.731 16.447 9.269 16.447 9.796 14.657L9.89 14.338C9.92681 14.2131 9.99111 14.0979 10.0782 14.001C10.1653 13.9042 10.2729 13.828 10.3933 13.7782C10.5136 13.7283 10.6436 13.706 10.7736 13.7129C10.9037 13.7198 11.0306 13.7557 11.145 13.818L11.437 13.978C13.077 14.871 14.871 13.076 13.977 11.437L13.818 11.145C13.7557 11.0306 13.7198 10.9037 13.7129 10.7736C13.706 10.6436 13.7283 10.5136 13.7782 10.3933C13.828 10.2729 13.9042 10.1653 14.001 10.0782C14.0979 9.99111 14.2131 9.92681 14.338 9.89L14.657 9.796C16.447 9.269 16.447 6.731 14.657 6.204L14.338 6.11C14.2131 6.0732 14.0979 6.0089 14.001 5.92182C13.9042 5.83474 13.828 5.72708 13.7782 5.60674C13.7283 5.48641 13.706 5.35643 13.7129 5.22636C13.7198 5.09628 13.7557 4.9694 13.818 4.855L13.978 4.563C14.871 2.923 13.076 1.13 11.437 2.023L11.145 2.182C11.0306 2.24431 10.9037 2.28023 10.7736 2.28712C10.6436 2.29402 10.5136 2.27172 10.3933 2.22186C10.2729 2.17199 10.1653 2.09584 10.0782 1.99896C9.99111 1.90209 9.92681 1.78696 9.89 1.662L9.796 1.343ZM7.163 1.626C7.409 0.791004 8.591 0.791004 8.837 1.626L8.931 1.945C9.01002 2.21309 9.14804 2.46009 9.33493 2.6679C9.52182 2.87571 9.75285 3.03907 10.0111 3.14598C10.2693 3.2529 10.5482 3.30067 10.8273 3.28579C11.1064 3.27092 11.3786 3.19377 11.624 3.06L11.915 2.9C12.679 2.485 13.515 3.32 13.099 4.085L12.94 4.377C12.8064 4.62243 12.7295 4.89463 12.7148 5.17366C12.7 5.45269 12.7479 5.73147 12.855 5.98959C12.962 6.2477 13.1254 6.47861 13.3332 6.66538C13.541 6.85215 13.788 6.99006 14.056 7.069L14.374 7.163C15.209 7.409 15.209 8.591 14.374 8.837L14.055 8.931C13.7869 9.01002 13.5399 9.14804 13.3321 9.33493C13.1243 9.52182 12.9609 9.75285 12.854 10.0111C12.7471 10.2693 12.6993 10.5482 12.7142 10.8273C12.7291 11.1064 12.8062 11.3786 12.94 11.624L13.1 11.915C13.515 12.679 12.68 13.515 11.915 13.099L11.624 12.94C11.3785 12.8063 11.1062 12.7291 10.8271 12.7143C10.548 12.6995 10.269 12.7474 10.0108 12.8544C9.75254 12.9614 9.52153 13.1249 9.33468 13.3328C9.14784 13.5407 9.00991 13.7878 8.931 14.056L8.837 14.374C8.591 15.209 7.409 15.209 7.163 14.374L7.069 14.055C6.98995 13.7871 6.85196 13.5402 6.66513 13.3325C6.47831 13.1248 6.24739 12.9615 5.98929 12.8546C5.73119 12.7477 5.45245 12.6999 5.17347 12.7147C4.8945 12.7294 4.62236 12.8064 4.377 12.94L4.085 13.1C3.321 13.515 2.485 12.68 2.901 11.915L3.06 11.624C3.19395 11.3786 3.27125 11.1062 3.28623 10.827C3.30121 10.5478 3.25348 10.2688 3.14655 10.0104C3.03962 9.75209 2.8762 9.52095 2.66828 9.33399C2.46037 9.14703 2.21323 9.00899 1.945 8.93L1.626 8.836C0.791004 8.59 0.791004 7.408 1.626 7.162L1.945 7.068C2.21281 6.98891 2.45954 6.85094 2.66715 6.66419C2.87475 6.47744 3.03797 6.24663 3.14486 5.98866C3.25175 5.73069 3.2996 5.45208 3.28492 5.17322C3.27024 4.89437 3.19339 4.62233 3.06 4.377L2.9 4.085C2.485 3.321 3.32 2.485 4.085 2.901L4.377 3.06C4.62236 3.19358 4.8945 3.27058 5.17347 3.28536C5.45245 3.30014 5.73119 3.25232 5.98929 3.14542C6.24739 3.03852 6.47831 2.87523 6.66513 2.66752C6.85196 2.45982 6.98995 2.21295 7.069 1.945L7.163 1.626Z" fill="#006C3F"/>
</g>
<defs>
<clipPath id="clip0_10_22">
<rect width="16" height="16" fill="white"/>
</clipPath>
</defs>
</svg>
